<svg width="695" height="158" viewBox="0 0 695 158" fill="none" xmlns="http://www.w3.org/2000/svg">
<path d="M18.2407 83.6676V82.1871C18.2407 81.159 18.7485 80.6244 19.7845 80.6244H26.0002C27.0158 80.6244 27.544 81.1384 27.544 82.1871V82.7834C27.544 84.6545 27.9096 85.95 28.6408 86.6285C29.3721 87.3276 30.7127 87.6566 32.6628 87.6566H36.0956C38.005 87.6566 39.3253 87.2865 40.0769 86.5463C40.8285 85.806 41.2144 84.4284 41.2144 82.3927V81.5085C41.2144 80.0692 40.6457 78.9794 39.4878 78.2186C38.3503 77.4578 36.9081 77.0054 35.2019 76.8409C33.4956 76.697 31.6471 76.4091 29.6768 75.9979C27.7065 75.5866 25.858 75.0314 24.1517 74.3734C22.4455 73.7155 21.0236 72.3995 19.8657 70.4461C18.7282 68.4927 18.1392 65.9841 18.1392 62.9409V60.35C18.1392 56.5049 19.2157 53.5234 21.3486 51.3849C23.5017 49.267 26.4674 48.1978 30.2659 48.1978H37.5784C41.4379 48.1978 44.4238 49.267 46.577 51.3849C48.7301 53.5028 49.7864 56.4843 49.7864 60.35V61.7483C49.7864 62.7764 49.2786 63.311 48.2426 63.311H42.0269C41.0113 63.311 40.4832 62.7969 40.4832 61.7483V61.2959C40.4832 59.363 40.1175 58.0676 39.3863 57.3685C38.655 56.6694 37.3144 56.3404 35.3644 56.3404H32.5206C30.5299 56.3404 29.169 56.7311 28.458 57.4919C27.7471 58.2527 27.4018 59.7537 27.4018 61.9744V63.3727C27.4018 65.6962 29.3924 67.0327 33.394 67.3617C37.5378 67.7113 41.2144 68.5543 44.4441 69.8703C46.1504 70.6106 47.5723 71.9265 48.7301 73.8388C49.8676 75.7306 50.4567 78.1775 50.4567 81.1384V83.647C50.4567 87.4921 49.3801 90.4737 47.2473 92.6121C45.0942 94.73 42.1285 95.7993 38.33 95.7993H30.3674C26.5689 95.7993 23.583 94.73 21.4501 92.6121C19.297 90.4942 18.2407 87.5127 18.2407 83.647V83.6676Z" fill="#54AFE3"/>
<path d="M81.8601 89.2197V94.3191C81.8601 94.8537 81.7586 95.2444 81.5351 95.4706C81.3117 95.6968 80.9054 95.7996 80.3367 95.7996H69.4491C65.5896 95.7996 62.624 94.7715 60.5318 92.6947C58.4396 90.6179 57.3833 87.6364 57.3833 83.7296V70.1174C57.3833 66.2106 58.4396 63.229 60.5318 61.1523C62.624 59.0755 65.61 58.0474 69.4491 58.0474H80.3367C81.3523 58.0474 81.8805 58.5614 81.8805 59.6101V64.7095C81.8805 65.2441 81.7789 65.6348 81.5555 65.861C81.332 66.0872 80.9258 66.19 80.357 66.19H70.9319C69.4287 66.19 68.3319 66.519 67.6819 67.1975C67.0318 67.8761 66.6865 68.9865 66.6865 70.5697V83.2978C66.6865 84.881 67.0115 85.9914 67.6819 86.67C68.3522 87.3485 69.4287 87.6775 70.9319 87.6775H80.357C81.3726 87.6775 81.9008 88.1916 81.9008 89.2402L81.8601 89.2197Z" fill="#54AFE3"/>
<path d="M95.8962 95.7994H89.6805C88.6649 95.7994 88.1367 95.2853 88.1367 94.2366V45.2986C88.1367 44.2705 88.6445 43.7358 89.6805 43.7358H95.8962C96.9118 43.7358 97.44 44.2499 97.44 45.2986V62.0362H97.7243C98.8009 59.3631 101.177 58.0471 104.895 58.0471H107.231C114.889 58.0471 118.707 62.0773 118.707 70.1171V94.2572C118.707 95.2853 118.179 95.8199 117.103 95.8199H110.968C109.953 95.8199 109.424 95.3059 109.424 94.2572V70.5695C109.424 68.9862 109.099 67.8759 108.429 67.1973C107.779 66.5393 106.662 66.1898 105.098 66.1898H102.457C99.0853 66.1898 97.4196 68.0609 97.4196 71.8238V94.2572C97.4196 95.2853 96.9118 95.8199 95.8759 95.8199L95.8962 95.7994Z" fill="#54AFE3"/>
<path d="M126.751 51.6933V45.2573C126.751 44.2703 127.239 43.7769 128.214 43.7769H134.572C135.547 43.7769 136.034 44.2498 136.034 45.1751V51.6933C136.034 52.6803 135.547 53.1738 134.572 53.1738H128.214C127.239 53.1738 126.751 52.6803 126.751 51.6933ZM126.751 94.2571V59.6098C126.751 58.5816 127.239 58.047 128.214 58.047H134.511C135.526 58.047 136.054 58.5611 136.054 59.6098V94.2571C136.054 94.8945 135.953 95.3263 135.729 95.5114C135.506 95.717 135.14 95.7992 134.592 95.7992H128.295C127.279 95.7992 126.751 95.2852 126.751 94.2365V94.2571Z" fill="#54AFE3"/>
<path d="M152.203 105.875H145.987C144.972 105.875 144.444 105.382 144.444 104.395V59.6101C144.444 58.582 144.951 58.0474 145.987 58.0474H152.203C153.219 58.0474 153.747 58.5614 153.747 59.6101V62.057H154.031C154.559 60.7205 155.514 59.7335 156.875 59.0549C158.236 58.3969 159.678 58.0474 161.181 58.0474H164.188C167.945 58.0474 170.789 59.0755 172.699 61.1523C174.628 63.229 175.583 66.2106 175.583 70.1174V83.7296C175.583 87.6364 174.628 90.6179 172.699 92.6947C170.769 94.7715 167.925 95.7996 164.188 95.7996H161.181C159.678 95.7996 158.236 95.4706 156.875 94.792C155.514 94.134 154.559 93.1265 154.031 91.7899H153.747V104.374C153.747 105.361 153.239 105.854 152.203 105.854V105.875ZM158.784 87.6569H161.994C163.558 87.6569 164.655 87.3279 165.325 86.6494C165.995 85.9708 166.32 84.8605 166.32 83.2772V70.5492C166.32 68.9659 165.995 67.8555 165.325 67.177C164.655 66.4984 163.558 66.1694 161.994 66.1694H158.784C155.412 66.1694 153.747 68.0406 153.747 71.8035V82.0229C153.747 85.7652 155.433 87.6569 158.784 87.6569Z" fill="#54AFE3"/>
<path d="M190.655 105.875H184.44C183.424 105.875 182.896 105.382 182.896 104.395V59.6101C182.896 58.582 183.404 58.0474 184.44 58.0474H190.655C191.671 58.0474 192.199 58.5614 192.199 59.6101V62.057H192.483C193.011 60.7205 193.966 59.7335 195.327 59.0549C196.688 58.3969 198.13 58.0474 199.633 58.0474H202.64C206.398 58.0474 209.241 59.0755 211.151 61.1523C213.08 63.229 214.035 66.2106 214.035 70.1174V83.7296C214.035 87.6364 213.08 90.6179 211.151 92.6947C209.221 94.7715 206.377 95.7996 202.64 95.7996H199.633C198.13 95.7996 196.688 95.4706 195.327 94.792C193.966 94.134 193.011 93.1265 192.483 91.7899H192.199V104.374C192.199 105.361 191.691 105.854 190.655 105.854V105.875ZM197.237 87.6569H200.446C202.01 87.6569 203.107 87.3279 203.777 86.6494C204.448 85.9708 204.773 84.8605 204.773 83.2772V70.5492C204.773 68.9659 204.448 67.8555 203.777 67.177C203.107 66.4984 202.01 66.1694 200.446 66.1694H197.237C193.865 66.1694 192.199 68.0406 192.199 71.8035V82.0229C192.199 85.7652 193.885 87.6569 197.237 87.6569Z" fill="#54AFE3"/>
<path d="M248.871 95.7996H232.702C228.843 95.7996 225.877 94.7715 223.785 92.6947C221.693 90.6179 220.637 87.6364 220.637 83.7296V70.1174C220.637 66.2106 221.693 63.229 223.785 61.1523C225.877 59.0755 228.863 58.0474 232.702 58.0474H238.471C242.331 58.0474 245.296 59.0755 247.389 61.1523C249.481 63.229 250.537 66.2106 250.537 70.1174V79.5143C250.537 80.5424 250.029 81.077 248.993 81.077H230.631C230.042 81.077 229.757 81.3443 229.757 81.8995V83.5239C229.757 85.0455 230.082 86.1559 230.752 86.8139C231.402 87.4719 232.52 87.8214 234.084 87.8214H248.851C249.867 87.8214 250.395 88.3561 250.395 89.4459V94.3397C250.395 94.8743 250.293 95.265 250.07 95.4911C249.846 95.7173 249.44 95.8201 248.871 95.8201V95.7996ZM230.651 74.785H240.604C241.132 74.785 241.417 74.5177 241.417 73.9625V70.4053C241.417 68.822 241.092 67.7116 240.462 67.0742C239.832 66.4367 238.735 66.1078 237.171 66.1078H234.104C232.54 66.1078 231.443 66.4367 230.813 67.0742C230.184 67.7116 229.859 68.822 229.859 70.4053V73.9625C229.859 74.4971 230.123 74.785 230.671 74.785H230.651Z" fill="#54AFE3"/>
<path d="M265.244 95.7991H259.028C258.012 95.7991 257.484 95.2851 257.484 94.2364V59.5891C257.484 58.561 257.992 58.0264 259.028 58.0264H265.244C266.259 58.0264 266.787 58.5404 266.787 59.5891V62.0977H267.072C267.6 60.7611 268.555 59.7536 269.916 59.0545C271.276 58.3554 272.719 58.0264 274.222 58.0264H276.862C277.837 58.0264 278.325 58.5404 278.325 59.5891V64.6885C278.325 65.2848 278.223 65.6961 278 65.9017C277.777 66.1073 277.411 66.2101 276.862 66.169H271.825C268.453 66.169 266.787 68.1019 266.787 71.947V94.2364C266.787 95.2645 266.28 95.7991 265.244 95.7991Z" fill="#54AFE3"/>
<path d="M297.135 95.7991H283.241C282.266 95.7991 281.778 95.2851 281.778 94.2364V89.5071C281.778 88.9725 281.88 88.5818 282.063 88.3556C282.266 88.1294 282.652 88.0266 283.241 88.0266H295.449C297.845 88.0266 299.024 87.2864 299.024 85.8059V85.4358C299.024 84.2432 298.028 83.1123 296.017 82.0225L288.786 77.9511C286.308 76.6763 284.48 75.2781 283.302 73.7976C282.123 72.3171 281.555 70.4254 281.555 68.1018C281.555 64.6474 282.448 62.0977 284.256 60.4733C286.064 58.8489 288.888 58.0264 292.747 58.0264H304.955C305.93 58.0264 306.417 58.5404 306.417 59.5891V64.4007C306.417 64.9353 306.316 65.326 306.133 65.5521C305.93 65.7783 305.544 65.8811 304.955 65.8811H294.799C292.402 65.8811 291.224 66.498 291.224 67.7317V68.1018C291.224 69.1916 292.28 70.302 294.372 71.4329L301.766 75.8744C304.305 77.252 306.072 78.6708 307.108 80.1307C308.124 81.5907 308.652 83.5029 308.652 85.8676C308.652 92.4886 304.833 95.7786 297.175 95.7786L297.135 95.7991Z" fill="#54AFE3"/>
<path d="M208.449 131.845H200.771V153.106H197.582V131.845H189.883V129.11H208.449V131.845Z" fill="white"/>
<path d="M220.921 135.875C222.14 135.875 223.257 136.081 224.232 136.492C225.207 136.903 226.06 137.499 226.751 138.26C227.442 139.021 227.97 139.946 228.356 141.016C228.721 142.085 228.904 143.298 228.904 144.634C228.904 145.971 228.721 147.184 228.356 148.253C227.99 149.323 227.462 150.248 226.751 151.009C226.06 151.77 225.227 152.345 224.232 152.757C223.257 153.168 222.14 153.373 220.921 153.373C219.702 153.373 218.565 153.168 217.59 152.757C216.595 152.345 215.762 151.77 215.071 151.009C214.38 150.248 213.852 149.343 213.466 148.253C213.101 147.184 212.918 145.971 212.918 144.634C212.918 143.298 213.101 142.105 213.466 141.016C213.832 139.946 214.36 139.021 215.071 138.26C215.782 137.499 216.615 136.924 217.59 136.492C218.585 136.081 219.682 135.875 220.921 135.875ZM220.921 151.029C222.567 151.029 223.806 150.474 224.618 149.343C225.431 148.212 225.837 146.65 225.837 144.655C225.837 142.661 225.431 141.057 224.618 139.926C223.806 138.795 222.567 138.24 220.921 138.24C220.088 138.24 219.357 138.384 218.727 138.671C218.098 138.959 217.59 139.391 217.163 139.926C216.757 140.481 216.432 141.139 216.229 141.941C216.026 142.743 215.924 143.648 215.924 144.655C215.924 146.67 216.331 148.233 217.163 149.343C217.976 150.474 219.235 151.029 220.921 151.029Z" fill="white"/>
<path d="M244.078 153.394C242.757 153.394 241.742 153.024 241.031 152.263C240.32 151.523 239.954 150.433 239.954 149.035V138.651H237.943C237.76 138.651 237.618 138.589 237.496 138.487C237.374 138.384 237.313 138.219 237.313 137.993V136.8L240.056 136.451L240.726 131.208C240.767 131.043 240.828 130.899 240.949 130.796C241.071 130.694 241.214 130.632 241.396 130.632H242.879V136.472H247.734V138.631H242.879V148.809C242.879 149.529 243.042 150.063 243.387 150.392C243.732 150.742 244.179 150.906 244.707 150.906C245.012 150.906 245.276 150.865 245.52 150.783C245.743 150.701 245.946 150.598 246.109 150.515C246.271 150.413 246.414 150.33 246.535 150.248C246.657 150.166 246.759 150.125 246.84 150.125C247.003 150.125 247.125 150.228 247.246 150.413L248.1 151.831C247.592 152.304 246.982 152.695 246.271 152.962C245.56 153.23 244.809 153.374 244.057 153.374L244.078 153.394Z" fill="white"/>
<path d="M256.976 138.548C257.911 137.643 258.906 136.965 259.962 136.533C261.039 136.081 262.217 135.854 263.517 135.854C264.451 135.854 265.284 136.019 266.015 136.327C266.747 136.636 267.356 137.068 267.844 137.643C268.331 138.199 268.717 138.877 268.961 139.658C269.225 140.46 269.347 141.324 269.347 142.27V153.127H268.047C267.762 153.127 267.539 153.086 267.376 152.983C267.214 152.88 267.092 152.695 267.011 152.428L266.686 150.824C266.239 151.235 265.812 151.605 265.386 151.914C264.959 152.243 264.533 152.51 264.065 152.715C263.598 152.921 263.111 153.106 262.583 153.209C262.054 153.312 261.486 153.394 260.836 153.394C260.186 153.394 259.576 153.291 259.007 153.127C258.439 152.962 257.931 152.674 257.504 152.304C257.078 151.934 256.753 151.461 256.489 150.906C256.245 150.351 256.123 149.672 256.123 148.911C256.123 148.233 256.306 147.596 256.671 146.979C257.037 146.362 257.626 145.807 258.439 145.334C259.251 144.861 260.328 144.47 261.628 144.162C262.948 143.853 264.553 143.689 266.462 143.627V142.311C266.462 140.995 266.178 140.008 265.609 139.33C265.04 138.651 264.228 138.322 263.151 138.322C262.42 138.322 261.811 138.404 261.323 138.589C260.836 138.774 260.409 138.98 260.043 139.206C259.678 139.432 259.373 139.638 259.109 139.823C258.845 140.008 258.601 140.09 258.337 140.09C258.134 140.09 257.972 140.029 257.829 139.926C257.687 139.823 257.565 139.679 257.464 139.535L256.936 138.589L256.976 138.548ZM266.483 145.478C265.122 145.519 263.964 145.622 263.009 145.807C262.054 145.971 261.282 146.197 260.673 146.485C260.064 146.773 259.637 147.102 259.373 147.472C259.109 147.842 258.967 148.274 258.967 148.747C258.967 149.22 259.048 149.569 259.19 149.898C259.332 150.227 259.536 150.495 259.779 150.7C260.023 150.906 260.328 151.05 260.653 151.153C260.998 151.256 261.343 151.297 261.729 151.297C262.258 151.297 262.725 151.235 263.151 151.132C263.578 151.029 263.984 150.865 264.37 150.68C264.756 150.474 265.122 150.248 265.467 149.96C265.812 149.672 266.158 149.364 266.483 149.014V145.498V145.478Z" fill="white"/>
<path d="M280.031 138.548C280.965 137.643 281.961 136.965 283.017 136.533C284.094 136.081 285.272 135.854 286.572 135.854C287.506 135.854 288.339 136.019 289.07 136.327C289.802 136.636 290.411 137.068 290.898 137.643C291.386 138.199 291.772 138.877 292.016 139.658C292.28 140.46 292.402 141.324 292.402 142.27V153.127H291.102C290.817 153.127 290.594 153.086 290.431 152.983C290.269 152.88 290.147 152.695 290.066 152.428L289.741 150.824C289.294 151.235 288.867 151.605 288.441 151.914C288.014 152.243 287.587 152.51 287.12 152.715C286.653 152.921 286.166 153.106 285.637 153.209C285.109 153.312 284.541 153.394 283.891 153.394C283.241 153.394 282.631 153.291 282.062 153.127C281.494 152.962 280.986 152.674 280.559 152.304C280.133 151.934 279.808 151.461 279.544 150.906C279.3 150.351 279.178 149.672 279.178 148.911C279.178 148.233 279.361 147.596 279.726 146.979C280.092 146.362 280.681 145.807 281.494 145.334C282.306 144.861 283.383 144.47 284.683 144.162C286.003 143.853 287.608 143.689 289.517 143.627V142.311C289.517 140.995 289.233 140.008 288.664 139.33C288.095 138.651 287.283 138.322 286.206 138.322C285.475 138.322 284.866 138.404 284.378 138.589C283.891 138.774 283.464 138.98 283.098 139.206C282.733 139.432 282.428 139.638 282.164 139.823C281.9 140.008 281.656 140.09 281.392 140.09C281.189 140.09 281.026 140.029 280.884 139.926C280.742 139.823 280.62 139.679 280.519 139.535L279.99 138.589L280.031 138.548ZM289.558 145.478C288.197 145.519 287.039 145.622 286.084 145.807C285.13 145.971 284.358 146.197 283.748 146.485C283.139 146.773 282.712 147.102 282.448 147.472C282.184 147.842 282.042 148.274 282.042 148.747C282.042 149.22 282.123 149.569 282.266 149.898C282.408 150.227 282.611 150.495 282.855 150.7C283.098 150.906 283.403 151.05 283.728 151.153C284.073 151.256 284.419 151.297 284.805 151.297C285.333 151.297 285.8 151.235 286.226 151.132C286.653 151.029 287.059 150.865 287.445 150.68C287.831 150.474 288.197 150.248 288.542 149.96C288.887 149.672 289.233 149.364 289.558 149.014V145.498V145.478Z" fill="white"/>
<path d="M306.58 128.452V153.127H303.635V128.452H306.58Z" fill="white"/>
<path d="M321.693 130.817C321.693 131.105 321.632 131.372 321.51 131.639C321.388 131.886 321.246 132.112 321.043 132.318C320.839 132.523 320.616 132.667 320.372 132.77C320.108 132.873 319.844 132.935 319.56 132.935C319.275 132.935 319.011 132.873 318.747 132.77C318.503 132.667 318.28 132.503 318.097 132.318C317.914 132.133 317.752 131.906 317.65 131.639C317.549 131.392 317.488 131.125 317.488 130.817C317.488 130.508 317.549 130.241 317.65 129.994C317.752 129.727 317.914 129.501 318.097 129.316C318.28 129.11 318.503 128.966 318.747 128.863C318.991 128.76 319.255 128.699 319.56 128.699C319.864 128.699 320.128 128.76 320.372 128.863C320.636 128.966 320.86 129.131 321.043 129.316C321.225 129.501 321.388 129.747 321.51 129.994C321.632 130.261 321.693 130.529 321.693 130.817ZM321.063 136.142V153.106H318.117V136.142H321.063Z" fill="#EDEDED"/>
<path d="M335.302 138.61C335.668 138.199 336.054 137.828 336.46 137.479C336.866 137.15 337.293 136.862 337.76 136.615C338.227 136.368 338.694 136.183 339.223 136.06C339.751 135.937 340.299 135.875 340.888 135.875C341.802 135.875 342.615 136.019 343.305 136.327C343.996 136.636 344.585 137.068 345.052 137.643C345.519 138.199 345.885 138.877 346.109 139.679C346.332 140.481 346.474 141.345 346.474 142.311V153.106H343.509V142.311C343.509 141.036 343.224 140.029 342.635 139.329C342.046 138.63 341.173 138.26 339.994 138.26C339.121 138.26 338.308 138.466 337.557 138.898C336.805 139.329 336.094 139.905 335.465 140.625V153.127H332.499V136.163H334.266C334.693 136.163 334.937 136.368 335.038 136.78L335.262 138.63L335.302 138.61Z" fill="#EDEDED"/>
<path d="M367.356 138.939C367.214 139.186 367.01 139.309 366.746 139.309C366.584 139.309 366.401 139.247 366.178 139.124C365.974 139.001 365.71 138.857 365.406 138.713C365.101 138.569 364.735 138.425 364.329 138.301C363.903 138.178 363.415 138.116 362.846 138.116C362.359 138.116 361.912 138.178 361.506 138.301C361.099 138.425 360.774 138.61 360.49 138.836C360.206 139.062 360.002 139.33 359.84 139.617C359.698 139.905 359.617 140.234 359.617 140.584C359.617 141.016 359.738 141.386 359.982 141.674C360.226 141.961 360.551 142.208 360.957 142.434C361.363 142.661 361.831 142.825 362.338 142.99C362.867 143.154 363.395 143.319 363.943 143.504C364.492 143.689 365.02 143.894 365.548 144.12C366.076 144.347 366.523 144.614 366.929 144.964C367.335 145.293 367.66 145.704 367.904 146.197C368.148 146.691 368.27 147.267 368.27 147.945C368.27 148.726 368.128 149.446 367.864 150.104C367.579 150.762 367.173 151.338 366.645 151.831C366.096 152.325 365.446 152.695 364.654 152.983C363.862 153.271 362.968 153.394 361.932 153.394C360.754 153.394 359.698 153.209 358.763 152.818C357.809 152.428 357.017 151.934 356.346 151.338L357.037 150.207C357.118 150.063 357.24 149.94 357.362 149.878C357.484 149.816 357.646 149.755 357.829 149.755C358.032 149.755 358.235 149.837 358.459 149.981C358.682 150.125 358.946 150.31 359.271 150.495C359.576 150.68 359.962 150.865 360.429 151.009C360.896 151.153 361.445 151.235 362.115 151.235C362.684 151.235 363.192 151.153 363.618 151.009C364.045 150.865 364.41 150.659 364.695 150.392C364.979 150.145 365.203 149.837 365.324 149.508C365.467 149.179 365.528 148.809 365.528 148.439C365.528 147.966 365.406 147.575 365.162 147.267C364.918 146.958 364.593 146.691 364.187 146.485C363.781 146.28 363.313 146.074 362.785 145.909C362.257 145.745 361.729 145.58 361.181 145.395C360.632 145.21 360.104 145.005 359.576 144.778C359.048 144.552 358.581 144.264 358.174 143.915C357.768 143.565 357.443 143.134 357.199 142.64C356.956 142.126 356.834 141.509 356.834 140.789C356.834 140.152 356.956 139.515 357.24 138.918C357.504 138.322 357.89 137.787 358.398 137.335C358.906 136.883 359.535 136.512 360.267 136.266C360.998 135.998 361.851 135.854 362.806 135.854C363.903 135.854 364.898 136.04 365.771 136.389C366.645 136.739 367.417 137.232 368.046 137.828L367.376 138.918L367.356 138.939Z" fill="#EDEDED"/>
<path d="M383.687 153.394C382.367 153.394 381.351 153.024 380.64 152.263C379.929 151.523 379.564 150.433 379.564 149.035V138.651H377.553C377.37 138.651 377.228 138.589 377.106 138.487C376.984 138.384 376.923 138.219 376.923 137.993V136.8L379.665 136.451L380.335 131.208C380.376 131.043 380.437 130.899 380.559 130.796C380.681 130.694 380.823 130.632 381.006 130.632H382.489V136.472H387.343V138.631H382.489V148.809C382.489 149.529 382.651 150.063 382.996 150.392C383.342 150.742 383.789 150.906 384.317 150.906C384.621 150.906 384.885 150.865 385.129 150.783C385.353 150.701 385.556 150.598 385.718 150.515C385.881 150.413 386.023 150.33 386.145 150.248C386.267 150.166 386.368 150.125 386.45 150.125C386.612 150.125 386.734 150.228 386.856 150.413L387.709 151.831C387.201 152.304 386.592 152.695 385.881 152.962C385.17 153.23 384.418 153.374 383.667 153.374L383.687 153.394Z" fill="#EDEDED"/>
<path d="M396.586 138.548C397.52 137.643 398.515 136.965 399.572 136.533C400.648 136.081 401.826 135.854 403.126 135.854C404.061 135.854 404.893 136.019 405.625 136.327C406.356 136.636 406.965 137.068 407.453 137.643C407.94 138.199 408.326 138.877 408.57 139.658C408.834 140.46 408.956 141.324 408.956 142.27V153.127H407.656C407.372 153.127 407.148 153.086 406.986 152.983C406.823 152.88 406.701 152.695 406.62 152.428L406.295 150.824C405.848 151.235 405.422 151.605 404.995 151.914C404.568 152.243 404.142 152.51 403.675 152.715C403.207 152.921 402.72 153.106 402.192 153.209C401.664 153.312 401.095 153.394 400.445 153.394C399.795 153.394 399.186 153.291 398.617 153.127C398.048 152.962 397.54 152.674 397.114 152.304C396.687 151.934 396.362 151.461 396.098 150.906C395.854 150.351 395.732 149.672 395.732 148.911C395.732 148.233 395.915 147.596 396.281 146.979C396.646 146.362 397.236 145.807 398.048 145.334C398.861 144.861 399.937 144.47 401.237 144.162C402.557 143.853 404.162 143.689 406.072 143.627V142.311C406.072 140.995 405.787 140.008 405.218 139.33C404.65 138.651 403.837 138.322 402.761 138.322C402.029 138.322 401.42 138.404 400.932 138.589C400.445 138.774 400.018 138.98 399.653 139.206C399.287 139.432 398.982 139.638 398.718 139.823C398.454 140.008 398.211 140.09 397.947 140.09C397.743 140.09 397.581 140.029 397.439 139.926C397.296 139.823 397.175 139.679 397.073 139.535L396.545 138.589L396.586 138.548ZM406.112 145.478C404.751 145.519 403.593 145.622 402.639 145.807C401.684 145.971 400.912 146.197 400.303 146.485C399.693 146.773 399.267 147.102 399.003 147.472C398.739 147.842 398.596 148.274 398.596 148.747C398.596 149.22 398.678 149.569 398.82 149.898C398.962 150.227 399.165 150.495 399.409 150.7C399.653 150.906 399.957 151.05 400.282 151.153C400.628 151.256 400.973 151.297 401.359 151.297C401.887 151.297 402.354 151.235 402.781 151.132C403.207 151.029 403.614 150.865 404 150.68C404.386 150.474 404.751 150.248 405.097 149.96C405.442 149.672 405.787 149.364 406.112 149.014V145.498V145.478Z" fill="#EDEDED"/>
<path d="M423.134 128.452V153.127H420.189V128.452H423.134Z" fill="#EDEDED"/>
<path d="M437.556 128.452V153.127H434.611V128.452H437.556Z" fill="#EDEDED"/>
<path d="M448.505 138.548C449.439 137.643 450.435 136.965 451.491 136.533C452.568 136.081 453.746 135.854 455.046 135.854C455.98 135.854 456.813 136.019 457.544 136.327C458.275 136.636 458.885 137.068 459.372 137.643C459.86 138.199 460.246 138.877 460.489 139.658C460.754 140.46 460.875 141.324 460.875 142.27V153.127H459.575C459.291 153.127 459.068 153.086 458.905 152.983C458.743 152.88 458.621 152.695 458.539 152.428L458.214 150.824C457.768 151.235 457.341 151.605 456.914 151.914C456.488 152.243 456.061 152.51 455.594 152.715C455.127 152.921 454.639 153.106 454.111 153.209C453.583 153.312 453.014 153.394 452.364 153.394C451.714 153.394 451.105 153.291 450.536 153.127C449.968 152.962 449.46 152.674 449.033 152.304C448.607 151.934 448.282 151.461 448.017 150.906C447.774 150.351 447.652 149.672 447.652 148.911C447.652 148.233 447.835 147.596 448.2 146.979C448.566 146.362 449.155 145.807 449.968 145.334C450.78 144.861 451.857 144.47 453.157 144.162C454.477 143.853 456.082 143.689 457.991 143.627V142.311C457.991 140.995 457.707 140.008 457.138 139.33C456.569 138.651 455.757 138.322 454.68 138.322C453.949 138.322 453.339 138.404 452.852 138.589C452.364 138.774 451.938 138.98 451.572 139.206C451.207 139.432 450.902 139.638 450.638 139.823C450.374 140.008 450.13 140.09 449.866 140.09C449.663 140.09 449.5 140.029 449.358 139.926C449.216 139.823 449.094 139.679 448.992 139.535L448.464 138.589L448.505 138.548ZM458.032 145.478C456.671 145.519 455.513 145.622 454.558 145.807C453.603 145.971 452.832 146.197 452.222 146.485C451.613 146.773 451.186 147.102 450.922 147.472C450.658 147.842 450.516 148.274 450.516 148.747C450.516 149.22 450.597 149.569 450.739 149.898C450.882 150.227 451.085 150.495 451.328 150.7C451.572 150.906 451.877 151.05 452.202 151.153C452.547 151.256 452.893 151.297 453.278 151.297C453.807 151.297 454.274 151.235 454.7 151.132C455.127 151.029 455.533 150.865 455.919 150.68C456.305 150.474 456.671 150.248 457.016 149.96C457.361 149.672 457.707 149.364 458.032 149.014V145.498V145.478Z" fill="#EDEDED"/>
<path d="M476.943 153.394C475.623 153.394 474.607 153.024 473.896 152.263C473.185 151.523 472.819 150.433 472.819 149.035V138.651H470.808C470.626 138.651 470.483 138.589 470.362 138.487C470.24 138.384 470.179 138.219 470.179 137.993V136.8L472.921 136.451L473.591 131.208C473.632 131.043 473.693 130.899 473.815 130.796C473.937 130.694 474.079 130.632 474.262 130.632H475.744V136.472H480.599V138.631H475.744V148.809C475.744 149.529 475.907 150.063 476.252 150.392C476.598 150.742 477.044 150.906 477.573 150.906C477.877 150.906 478.141 150.865 478.385 150.783C478.608 150.701 478.812 150.598 478.974 150.515C479.137 150.413 479.279 150.33 479.401 150.248C479.523 150.166 479.624 150.125 479.705 150.125C479.868 150.125 479.99 150.228 480.112 150.413L480.965 151.831C480.457 152.304 479.848 152.695 479.137 152.962C478.426 153.23 477.674 153.374 476.923 153.374L476.943 153.394Z" fill="#EDEDED"/>
<path d="M503.796 150.741C503.431 151.194 503.004 151.584 502.496 151.913C501.989 152.242 501.44 152.51 500.871 152.736C500.282 152.942 499.693 153.106 499.084 153.209C498.474 153.312 497.845 153.373 497.256 153.373C496.098 153.373 495.021 153.168 494.046 152.777C493.071 152.386 492.218 151.79 491.507 151.029C490.796 150.268 490.248 149.323 489.841 148.192C489.435 147.061 489.252 145.765 489.252 144.305C489.252 143.113 489.435 142.023 489.781 140.995C490.146 139.967 490.654 139.083 491.324 138.322C491.995 137.561 492.827 136.985 493.782 136.553C494.757 136.122 495.854 135.916 497.053 135.916C498.048 135.916 498.982 136.081 499.835 136.43C500.689 136.78 501.42 137.253 502.049 137.911C502.679 138.569 503.167 139.35 503.512 140.296C503.857 141.242 504.04 142.311 504.04 143.524C504.04 143.997 503.999 144.305 503.898 144.47C503.796 144.634 503.614 144.696 503.329 144.696H492.137C492.177 145.765 492.32 146.711 492.584 147.493C492.848 148.294 493.213 148.952 493.66 149.487C494.127 150.022 494.676 150.412 495.306 150.68C495.935 150.947 496.667 151.07 497.459 151.07C498.19 151.07 498.84 150.988 499.368 150.803C499.896 150.639 500.364 150.453 500.749 150.248C501.135 150.042 501.46 149.857 501.724 149.693C501.989 149.528 502.212 149.425 502.395 149.425C502.639 149.425 502.821 149.528 502.964 149.713L503.796 150.803V150.741ZM501.399 142.784C501.399 142.085 501.298 141.468 501.115 140.892C500.912 140.316 500.648 139.823 500.262 139.391C499.896 138.98 499.449 138.651 498.921 138.425C498.393 138.198 497.784 138.075 497.113 138.075C495.712 138.075 494.595 138.486 493.762 139.329C492.929 140.172 492.421 141.324 492.238 142.784H501.399Z" fill="#EDEDED"/>
<path d="M528.05 136.143V153.106H526.303C525.876 153.106 525.612 152.901 525.511 152.49L525.287 150.659C524.556 151.482 523.743 152.14 522.829 152.633C521.915 153.127 520.879 153.374 519.721 153.374C518.807 153.374 517.995 153.23 517.304 152.921C516.593 152.613 516.004 152.181 515.537 151.626C515.07 151.071 514.704 150.392 514.481 149.611C514.237 148.809 514.135 147.945 514.135 146.979V136.163H517.081V146.979C517.081 148.254 517.365 149.261 517.954 149.96C518.543 150.659 519.417 151.009 520.615 151.009C521.489 151.009 522.301 150.803 523.053 150.372C523.804 149.96 524.515 149.385 525.145 148.644V136.143H528.09H528.05Z" fill="#EDEDED"/>
<path d="M542.147 139.556C542.675 138.404 543.325 137.479 544.097 136.841C544.869 136.183 545.803 135.854 546.92 135.854C547.265 135.854 547.611 135.896 547.936 135.978C548.261 136.06 548.545 136.183 548.809 136.348L548.586 138.569C548.525 138.857 548.362 138.98 548.078 138.98C547.916 138.98 547.692 138.939 547.408 138.877C547.103 138.815 546.778 138.774 546.392 138.774C545.864 138.774 545.397 138.857 544.97 139.001C544.564 139.165 544.198 139.391 543.873 139.7C543.548 140.008 543.264 140.378 543 140.831C542.736 141.283 542.512 141.797 542.289 142.373V153.086H539.323V136.122H541.009C541.334 136.122 541.558 136.183 541.68 136.307C541.801 136.43 541.883 136.636 541.923 136.944L542.126 139.515L542.147 139.556Z" fill="#EDEDED"/>
<path d="M567.659 138.939C567.537 139.186 567.314 139.309 567.05 139.309C566.887 139.309 566.705 139.247 566.481 139.124C566.278 139.001 566.014 138.857 565.709 138.713C565.405 138.569 565.039 138.425 564.633 138.301C564.206 138.178 563.719 138.116 563.15 138.116C562.662 138.116 562.216 138.178 561.809 138.301C561.423 138.425 561.078 138.61 560.794 138.836C560.509 139.062 560.306 139.33 560.144 139.617C559.981 139.905 559.92 140.234 559.92 140.584C559.92 141.016 560.042 141.386 560.286 141.674C560.53 141.961 560.855 142.208 561.281 142.434C561.687 142.64 562.155 142.825 562.662 142.99C563.17 143.154 563.719 143.319 564.267 143.504C564.816 143.689 565.344 143.894 565.872 144.12C566.38 144.347 566.847 144.614 567.253 144.964C567.659 145.293 567.984 145.704 568.228 146.197C568.472 146.691 568.594 147.267 568.594 147.945C568.594 148.726 568.452 149.446 568.188 150.104C567.903 150.762 567.497 151.338 566.969 151.831C566.42 152.325 565.77 152.695 564.978 152.983C564.186 153.271 563.292 153.394 562.256 153.394C561.078 153.394 560.022 153.209 559.087 152.818C558.133 152.428 557.34 151.934 556.67 151.338L557.361 150.207C557.442 150.063 557.544 149.94 557.666 149.878C557.787 149.816 557.95 149.755 558.133 149.755C558.336 149.755 558.539 149.837 558.762 149.981C558.986 150.125 559.25 150.31 559.575 150.495C559.9 150.68 560.266 150.865 560.733 151.009C561.2 151.153 561.748 151.235 562.419 151.235C562.987 151.235 563.495 151.153 563.922 151.009C564.348 150.865 564.714 150.659 564.998 150.392C565.283 150.145 565.506 149.837 565.628 149.508C565.77 149.179 565.831 148.809 565.831 148.439C565.831 147.966 565.709 147.575 565.466 147.267C565.222 146.958 564.897 146.691 564.491 146.485C564.084 146.259 563.617 146.074 563.089 145.909C562.561 145.745 562.033 145.58 561.484 145.395C560.936 145.21 560.408 145.005 559.88 144.778C559.351 144.552 558.884 144.264 558.478 143.915C558.072 143.565 557.747 143.134 557.503 142.64C557.259 142.147 557.137 141.509 557.137 140.789C557.137 140.152 557.259 139.515 557.523 138.918C557.787 138.322 558.173 137.787 558.681 137.335C559.189 136.883 559.819 136.512 560.55 136.266C561.281 135.998 562.134 135.854 563.089 135.854C564.186 135.854 565.181 136.04 566.055 136.389C566.928 136.739 567.68 137.232 568.33 137.828L567.659 138.918V138.939Z" fill="#EDEDED"/>
<path d="M458.092 99.562H451.877C450.861 99.562 450.333 99.048 450.333 97.9993V53.5027C450.333 52.4746 450.841 51.9399 451.877 51.9399H458.092C459.108 51.9399 459.636 52.454 459.636 53.5027V74.5995H459.778C460.164 73.4069 460.916 71.8853 462.053 70.0141L473.165 53.5027C473.794 52.4746 474.749 51.9399 476.008 51.9399H483.179C483.707 51.9399 484.052 52.1044 484.174 52.4129C484.296 52.7419 484.174 53.1325 483.768 53.626L469.874 73.0985L485.372 97.6703C485.718 98.2666 485.779 98.719 485.555 99.048C485.332 99.3769 484.885 99.5209 484.194 99.5209H478.852C477.146 99.5209 476.008 99.0068 475.419 97.9582L464.227 79.8223L459.616 85.2918V97.9582C459.616 98.9863 459.108 99.5209 458.072 99.5209L458.092 99.562Z" fill="white"/>
<path d="M503.877 99.5618H501.46C497.702 99.5618 494.858 98.5337 492.949 96.4569C491.019 94.3802 490.065 91.3986 490.065 87.4918V63.3518C490.065 62.3237 490.573 61.7891 491.608 61.7891H497.824C498.84 61.7891 499.368 62.3031 499.368 63.3518V87.0395C499.368 88.6227 499.693 89.7331 500.363 90.4117C501.013 91.0697 502.11 91.4192 503.613 91.4192H506.315C509.687 91.4192 511.352 89.548 511.352 85.7852V63.3518C511.352 62.3237 511.86 61.7891 512.896 61.7891H519.031C520.107 61.7891 520.635 62.3031 520.635 63.3518V97.9991C520.635 99.0272 520.107 99.5618 519.031 99.5618H512.896C511.881 99.5618 511.352 99.0478 511.352 97.9991V95.5522H511.068C510.54 96.8888 509.585 97.8757 508.224 98.5543C506.863 99.2123 505.421 99.5618 503.918 99.5618H503.877Z" fill="white"/>
<path d="M529.024 55.456V49.02C529.024 48.033 529.512 47.5396 530.487 47.5396H536.845C537.82 47.5396 538.307 48.0125 538.307 48.9378V55.456C538.307 56.443 537.82 56.9365 536.845 56.9365H530.487C529.512 56.9365 529.024 56.443 529.024 55.456ZM529.024 98.0198V63.3724C529.024 62.3443 529.512 61.8097 530.487 61.8097H536.784C537.8 61.8097 538.328 62.3238 538.328 63.3724V98.0198C538.328 98.6572 538.226 99.089 538.003 99.2741C537.779 99.4797 537.414 99.5619 536.865 99.5619H530.568C529.553 99.5619 529.024 99.0479 529.024 97.9992V98.0198Z" fill="white"/>
<path d="M554.842 99.562H548.626C547.611 99.562 547.083 99.048 547.083 97.9993V49.0613C547.083 48.0332 547.59 47.4985 548.626 47.4985H554.842C555.858 47.4985 556.386 48.0126 556.386 49.0613V97.9993C556.386 99.0274 555.878 99.562 554.842 99.562Z" fill="white"/>
<path d="M572.534 99.5618H566.319C565.303 99.5618 564.775 99.0478 564.775 97.9991V63.3518C564.775 62.3237 565.283 61.7891 566.319 61.7891H572.534C573.55 61.7891 574.078 62.3031 574.078 63.3518V65.7987H574.363C574.952 64.6061 575.927 63.6602 577.328 62.92C578.709 62.1797 580.314 61.8096 582.122 61.8096H584.174C588.419 61.8096 591.466 63.3929 593.314 66.5389C594.98 63.3724 597.824 61.8096 601.866 61.8096H603.978C607.736 61.8096 610.58 62.8377 612.489 64.9145C614.419 66.9913 615.374 69.9728 615.374 73.8796V98.0197C615.374 99.0478 614.866 99.5824 613.83 99.5824H607.614C606.599 99.5824 606.071 99.0683 606.071 98.0197V74.332C606.071 72.7487 605.746 71.6384 605.116 70.9598C604.486 70.3018 603.389 69.9523 601.825 69.9523H599.997C596.625 69.9523 594.96 71.844 594.96 75.648V97.9991C594.96 99.0272 594.431 99.5618 593.355 99.5618H587.22C586.205 99.5618 585.677 99.0478 585.677 97.9991V74.3114C585.677 72.7282 585.352 71.6178 584.681 70.9392C584.031 70.2813 582.914 69.9317 581.35 69.9317H579.075C575.703 69.9317 574.038 71.8029 574.038 75.5657V97.9991C574.038 99.0272 573.53 99.5618 572.494 99.5618H572.534Z" fill="white"/>
<path d="M636.235 99.5623H634.488C630.629 99.5623 627.663 98.5342 625.571 96.4574C623.479 94.3806 622.422 91.3991 622.422 87.4923V73.8801C622.422 69.9733 623.479 66.9917 625.571 64.915C627.663 62.8382 630.649 61.8101 634.488 61.8101H651.388C652.465 61.8101 652.993 62.3241 652.993 63.3728V98.0201C652.993 99.0482 652.465 99.5828 651.388 99.5828H645.254C644.238 99.5828 643.71 99.0688 643.71 98.0201V95.5732H643.426C642.898 96.9097 641.943 97.8967 640.582 98.5753C639.221 99.2333 637.779 99.5828 636.276 99.5828L636.235 99.5623ZM643.69 85.8062V70.7752C643.69 70.2406 643.405 69.9527 642.816 69.9527H635.951C634.387 69.9527 633.29 70.2817 632.66 70.9602C632.03 71.6182 631.705 72.7492 631.705 74.3324V87.0605C631.705 88.6437 632.03 89.7541 632.66 90.4327C633.29 91.0906 634.387 91.4402 635.951 91.4402H638.652C642.024 91.4402 643.69 89.569 643.69 85.8062Z" fill="white"/>
<path d="M668.776 99.5618H662.56C661.545 99.5618 661.017 99.0478 661.017 97.9991V63.3518C661.017 62.3237 661.524 61.7891 662.56 61.7891H668.776C669.792 61.7891 670.32 62.3031 670.32 63.3518V65.7987H670.604C671.681 63.1256 674.057 61.8096 677.775 61.8096H680.111C687.768 61.8096 691.587 65.8398 691.587 73.8796V98.0197C691.587 99.0478 691.059 99.5824 689.983 99.5824H683.848C682.832 99.5824 682.304 99.0683 682.304 98.0197V74.332C682.304 72.7487 681.979 71.6384 681.309 70.9598C680.659 70.3018 679.542 69.9523 677.978 69.9523H675.337C671.965 69.9523 670.299 71.8234 670.299 75.5863V98.0197C670.299 99.0478 669.792 99.5824 668.756 99.5824L668.776 99.5618Z" fill="white"/>
<path d="M379.259 107.478C403.098 107.478 422.423 87.9155 422.423 63.7836C422.423 39.6516 403.098 20.0889 379.259 20.0889C355.42 20.0889 336.094 39.6516 336.094 63.7836C336.094 87.9155 355.42 107.478 379.259 107.478Z" stroke="white" stroke-width="7.6" stroke-miterlimit="10"/>
<path d="M342.919 113.462L367.843 75.8127C368.493 74.8257 368.249 73.5097 367.335 72.8106L349.765 59.4452C348.587 58.561 348.647 56.7515 349.866 55.9496L414.258 13.6531C415.09 13.1391 416.045 14.126 415.497 14.9485L387.364 54.2224C387.12 54.613 387.242 55.1271 387.607 55.3738L405.99 67.7112C407.168 68.5131 407.168 70.2814 405.99 71.0628L343.508 113.997C343.143 114.243 342.716 113.812 342.96 113.442L342.919 113.462Z" fill="#54AFE3"/>
</svg>
